<svg width="24" height="24" viewBox="0 0 24 24" fill="none" xmlns="http://www.w3.org/2000/svg">
  <path fill-rule="evenodd" clip-rule="evenodd"
        d="M11.9642 0.245117C5.34833 0.245117 0 5.63287 0 12.2983C0 17.6263 3.42686 22.1363 8.18082 23.7325C8.77518 23.8525 8.9929 23.4732 8.9929 23.1541C8.9929 22.8747 8.97331 21.9169 8.97331 20.9189C5.64514 21.6374 4.95208 19.4821 4.95208 19.4821C4.41722 18.0852 3.62473 17.7262 3.62473 17.7262C2.53543 16.9878 3.70408 16.9878 3.70408 16.9878C4.91241 17.0676 5.54645 18.225 5.54645 18.225C6.61592 20.0608 8.33927 19.5421 9.03257 19.2227C9.13151 18.4445 9.44865 17.9057 9.78539 17.6064C7.13094 17.327 4.33812 16.2894 4.33812 11.6596C4.33812 10.3425 4.81322 9.26495 5.56604 8.42691C5.44727 8.12765 5.03118 6.89018 5.68506 5.23393C5.68506 5.23393 6.69527 4.91459 8.97306 6.47116C9.94827 6.20732 10.954 6.0731 11.9642 6.07197C12.9744 6.07197 14.0042 6.21181 14.9552 6.47116C17.2332 4.91459 18.2434 5.23393 18.2434 5.23393C18.8973 6.89018 18.481 8.12765 18.3622 8.42691C19.1349 9.26495 19.5904 10.3425 19.5904 11.6596C19.5904 16.2894 16.7976 17.3069 14.1233 17.6064C14.5592 17.9855 14.9353 18.7038 14.9353 19.8414C14.9353 21.4577 14.9158 22.7549 14.9158 23.1539C14.9158 23.4732 15.1337 23.8525 15.7278 23.7328C20.4818 22.1361 23.9087 17.6263 23.9087 12.2983C23.9282 5.63287 18.5603 0.245117 11.9642 0.245117Z"
        fill="#ffffff"/>
</svg>
