<svg width="24" height="24" viewBox="0 0 24 24" fill="none" xmlns="http://www.w3.org/2000/svg">
  <path d="M10.2898 3.85996L1.81978 17.9999C1.64514 18.3023 1.55274 18.6452 1.55177 18.9944C1.55079 19.3437 1.64127 19.6871 1.8142 19.9904C1.98714 20.2938 2.2365 20.5467 2.53748 20.7238C2.83847 20.9009 3.18058 20.9961 3.52978 20.9999H20.4698C20.819 20.9961 21.1611 20.9009 21.4621 20.7238C21.7631 20.5467 22.0124 20.2938 22.1854 19.9904C22.3583 19.6871 22.4488 19.3437 22.4478 18.9944C22.4468 18.6452 22.3544 18.3023 22.1798 17.9999L13.7098 3.85996C13.5315 3.56607 13.2805 3.32308 12.981 3.15445C12.6814 2.98581 12.3435 2.89722 11.9998 2.89722C11.656 2.89722 11.3181 2.98581 11.0186 3.15445C10.7191 3.32308 10.468 3.56607 10.2898 3.85996Z" stroke="white" stroke-width="2" stroke-linecap="round" stroke-linejoin="round"/>
  <path d="M12 17H12.01" stroke="white" stroke-width="2" stroke-linecap="round" stroke-linejoin="round"/>
  <path d="M12 9V13" stroke="white" stroke-width="2" stroke-linecap="round" stroke-linejoin="round"/>
</svg>
