<svg width="24" height="24" viewBox="0 0 24 24" fill="none" xmlns="http://www.w3.org/2000/svg">
  <path d="M11.991 1H12.009C18.0781 1 23 5.79251 23 11.7021V12.2979C23 18.2075 18.0781 23 12.009 23H11.991C5.92188 23 1 18.2075 1 12.2979V11.7021C1 5.79251 5.92188 1 11.991 1Z" fill="url(#paint0_linear_3349_1051)"/>
  <path d="M16.7014 9.28017C16.6654 9.31959 16.6204 9.35026 16.5709 9.36778C16.5214 9.38968 16.4674 9.39845 16.4134 9.39845H6.22324C5.86332 9.39845 5.67886 8.96037 5.93081 8.69753L7.60443 6.96714C7.64042 6.92772 7.68541 6.89705 7.7394 6.87515C7.78889 6.85324 7.84287 6.84448 7.89686 6.84448H18.1275C18.492 6.84448 18.6719 7.28694 18.4155 7.54978L16.7014 9.28017ZM16.7014 17.0165C16.6249 17.091 16.5214 17.1348 16.4134 17.1348H6.22324C5.86332 17.1348 5.67886 16.7055 5.93081 16.4514L7.60443 14.7605C7.64042 14.721 7.68991 14.6904 7.7394 14.6728C7.78889 14.6509 7.84287 14.6422 7.89686 14.6422H18.1275C18.492 14.6422 18.6719 15.0759 18.4155 15.3299L16.7014 17.0165ZM16.7014 10.8616C16.6249 10.7871 16.5214 10.7433 16.4134 10.7433H6.22324C5.86332 10.7433 5.67886 11.1726 5.93081 11.4267L7.60443 13.1177C7.64042 13.1571 7.68991 13.1878 7.7394 13.2053C7.78889 13.2272 7.84287 13.236 7.89686 13.236H18.1275C18.492 13.236 18.6719 12.8023 18.4155 12.5482L16.7014 10.8616Z" fill="white"/>
  <defs>
    <linearGradient id="paint0_linear_3349_1051" x1="2" y1="3" x2="30" y2="31" gradientUnits="userSpaceOnUse">
      <stop stop-color="#9B44FE"/>
      <stop offset="1" stop-color="#15F094"/>
    </linearGradient>
  </defs>
</svg>
