<svg width="32" height="32" viewBox="0 0 32 32" fill="none" xmlns="http://www.w3.org/2000/svg">
  <g clip-path="url(#clip0_36_3)">
    <path d="M16 32C24.8366 32 32 24.8366 32 16C32 7.16344 24.8366 0 16 0C7.16344 0 0 7.16344 0 16C0 24.8366 7.16344 32 16 32Z" fill="white"/>
    <path d="M29 16C29 23.1797 23.1797 29 16 29C8.8203 29 3 23.1797 3 16C3 8.8203 8.8203 3 16 3C23.1797 3 29 8.8203 29 16Z" fill="white" stroke="black" stroke-width="2"/>
    <path d="M10.6265 10.1071L16.2546 15.7451C16.3214 15.8126 16.3589 15.9037 16.3589 15.9988C16.3589 16.0939 16.3214 16.1851 16.2546 16.2526C16.2202 16.2882 16.1787 16.316 16.1327 16.3345C16.0868 16.3528 16.0375 16.3614 15.988 16.3593H10.3706C10.3232 16.3598 10.2762 16.3506 10.2324 16.3326C10.1886 16.3146 10.1488 16.2881 10.1153 16.2546C10.0818 16.221 10.0553 16.1811 10.0373 16.1372C10.0193 16.0933 10.0103 16.0463 10.0106 15.9988V10.3581C10.0111 10.2868 10.0327 10.2173 10.0726 10.1583C10.1125 10.0993 10.169 10.0535 10.2349 10.0266C10.3008 9.99973 10.3732 9.99304 10.4429 10.0074C10.5126 10.0217 10.5765 10.0564 10.6265 10.1071Z" fill="black"/>
    <path d="M21.3735 21.8904L15.7453 16.2524C15.6786 16.1848 15.6411 16.0937 15.6411 15.9986C15.6411 15.9036 15.6786 15.8125 15.7453 15.7449C15.7804 15.7105 15.8222 15.6835 15.868 15.6656C15.9138 15.6476 15.9627 15.6393 16.0119 15.6408H21.6428C21.7375 15.6408 21.8284 15.6785 21.8953 15.7455C21.9624 15.8127 22 15.9037 22 15.9986V21.6393C22.0003 21.6865 21.9914 21.7333 21.9736 21.7771C21.9558 21.8208 21.9295 21.8606 21.8962 21.8941C21.863 21.9276 21.8236 21.9543 21.78 21.9723C21.7366 21.9905 21.6898 21.9999 21.6428 21.9999C21.5932 22.0007 21.544 21.9914 21.4982 21.9726C21.4524 21.9538 21.4108 21.9258 21.3762 21.8904" fill="black"/>
    <path d="M16.2546 16.2526L10.6265 21.8904C10.5919 21.926 10.5504 21.954 10.5046 21.9729C10.4587 21.9917 10.4095 22.0009 10.3599 21.9999C10.3126 22.0002 10.2656 21.9912 10.2218 21.9732C10.1779 21.9552 10.1381 21.9286 10.1046 21.8951C10.0711 21.8615 10.0446 21.8217 10.0267 21.7777C10.0087 21.7338 9.99966 21.6868 10 21.6394V15.9986C10 15.9515 10.0093 15.9047 10.0274 15.8611C10.0456 15.8175 10.0721 15.778 10.1056 15.7446C10.139 15.7114 10.1787 15.6851 10.2224 15.6672C10.266 15.6494 10.3128 15.6404 10.3599 15.6408H16.0015C16.0734 15.6378 16.1446 15.6566 16.2057 15.6949C16.2668 15.7331 16.315 15.789 16.3438 15.8552C16.3726 15.9212 16.3808 15.9946 16.3673 16.0655C16.3538 16.1364 16.3191 16.2016 16.2681 16.2524" fill="black"/>
    <path d="M10.1171 21.3857L15.7452 15.7477C15.7797 15.7121 15.8212 15.6842 15.8671 15.6658C15.9131 15.6474 15.9625 15.6388 16.0119 15.6408C16.1066 15.6408 16.1974 15.6785 16.2645 15.7457C16.3314 15.8128 16.3691 15.9038 16.3691 15.9987V21.6394C16.3694 21.6867 16.3604 21.7335 16.3426 21.7772C16.3248 21.8209 16.2986 21.8607 16.2654 21.8942C16.2322 21.9277 16.1927 21.9543 16.1492 21.9725C16.1056 21.9906 16.059 22 16.0118 22H10.3703C10.3231 22.0004 10.2762 21.9912 10.2327 21.9728C10.1891 21.9544 10.1498 21.9273 10.1171 21.8931C10.0834 21.86 10.0566 21.8206 10.0383 21.777C10.02 21.7335 10.0106 21.6867 10.0106 21.6394C10.0106 21.5921 10.02 21.5454 10.0383 21.5018C10.0566 21.4582 10.0834 21.4188 10.1171 21.3857Z" fill="black"/>
    <path d="M15.7453 15.7449L21.3741 10.107C21.4089 10.0719 21.4506 10.0443 21.4964 10.026C21.5422 10.0076 21.5913 9.99881 21.6407 10.0001C21.6876 10.0001 21.7341 10.0094 21.7774 10.0274C21.8207 10.0454 21.8601 10.0717 21.8933 10.105C21.9265 10.1382 21.9528 10.1776 21.9707 10.2211C21.9887 10.2645 21.998 10.311 21.998 10.358V15.9987C21.9983 16.046 21.9893 16.0928 21.9715 16.1365C21.9538 16.1802 21.9275 16.22 21.8942 16.2535C21.861 16.287 21.8216 16.3136 21.778 16.3318C21.7345 16.3499 21.6878 16.3593 21.6407 16.3593H16.0019C15.9299 16.3615 15.8589 16.342 15.7981 16.3034C15.7373 16.2648 15.6895 16.2088 15.6608 16.1426C15.632 16.0765 15.6238 16.0032 15.6371 15.9324C15.6503 15.8615 15.6846 15.7962 15.7353 15.745" fill="black"/>
    <path d="M21.8856 10.6145L16.2574 16.2526C16.2222 16.2871 16.1805 16.3144 16.1348 16.3327C16.0891 16.351 16.0401 16.3601 15.9908 16.3594C15.9434 16.3598 15.8965 16.3506 15.8526 16.3326C15.8088 16.3147 15.769 16.2882 15.7355 16.2546C15.7021 16.221 15.6756 16.1811 15.6576 16.1372C15.6396 16.0934 15.6306 16.0463 15.6309 15.9988V10.3581C15.6309 10.3109 15.6402 10.2642 15.6584 10.2206C15.6765 10.177 15.703 10.1374 15.7365 10.1041C15.77 10.0709 15.8097 10.0445 15.8533 10.0267C15.897 10.0089 15.9437 9.99989 15.9908 10.0003H21.6216C21.6708 9.99843 21.7198 10.0067 21.7657 10.0246C21.8116 10.0426 21.8533 10.0697 21.8882 10.1044C21.9552 10.1724 21.9927 10.264 21.9927 10.3595C21.9927 10.4549 21.9552 10.5466 21.8882 10.6145" fill="black"/>
  </g>
  <defs>
    <clipPath id="clip0_36_3">
      <rect width="32" height="32" fill="white"/>
    </clipPath>
  </defs>
</svg>
