<svg viewBox="0 0 24 24" fill="none" xmlns="http://www.w3.org/2000/svg">
  <circle cx="12" cy="12" r="12" fill="#DF42AB"/>
  <path d="M7.35868 6.90206L12.4077 11.9511C12.4676 12.0116 12.5012 12.0932 12.5012 12.1783C12.5012 12.2634 12.4676 12.3451 12.4077 12.4055C12.3768 12.4374 12.3396 12.4624 12.2983 12.4789C12.2571 12.4954 12.2129 12.503 12.1686 12.5012H7.12908C7.08659 12.5015 7.04445 12.4934 7.00513 12.4773C6.96581 12.4612 6.9301 12.4374 6.90005 12.4074C6.87 12.3773 6.84622 12.3416 6.83011 12.3023C6.814 12.2629 6.80586 12.2208 6.80618 12.1783V7.12689C6.80661 7.06306 6.82595 7.00079 6.86176 6.94794C6.89757 6.8951 6.94824 6.85406 7.00736 6.83C7.06649 6.80594 7.13143 6.79994 7.19396 6.81277C7.25649 6.8256 7.31381 6.85667 7.35868 6.90206Z" fill="white"/>
  <path d="M17 17.4544L11.951 12.4054C11.8911 12.3449 11.8575 12.2632 11.8575 12.1781C11.8575 12.093 11.8911 12.0114 11.951 11.9509C11.9825 11.9201 12.0199 11.8959 12.061 11.8799C12.1021 11.8639 12.146 11.8563 12.1901 11.8576H17.2416C17.3266 11.8576 17.4081 11.8914 17.4682 11.9515C17.5283 12.0116 17.5621 12.0931 17.5621 12.1781V17.2296C17.5624 17.2719 17.5543 17.3138 17.5384 17.353C17.5224 17.3921 17.4988 17.4277 17.469 17.4578C17.4392 17.4878 17.4038 17.5116 17.3648 17.5279C17.3257 17.5441 17.2839 17.5525 17.2416 17.5525C17.1971 17.5532 17.153 17.5449 17.1119 17.528C17.0708 17.5112 17.0335 17.4861 17.0024 17.4544" fill="white"/>
  <path d="M12.4077 12.4055L7.35887 17.4545C7.32782 17.4863 7.29058 17.5114 7.24944 17.5283C7.2083 17.5452 7.16414 17.5534 7.11969 17.5525C7.0772 17.5529 7.03507 17.5447 6.99575 17.5286C6.95643 17.5125 6.92071 17.4887 6.89066 17.4587C6.86061 17.4286 6.83685 17.3929 6.82073 17.3536C6.80462 17.3143 6.79649 17.2721 6.79681 17.2296V12.1782C6.79681 12.1359 6.80516 12.0941 6.82142 12.055C6.83768 12.016 6.86151 11.9805 6.89152 11.9507C6.92154 11.9209 6.95715 11.8974 6.99631 11.8814C7.03547 11.8655 7.0774 11.8574 7.11969 11.8577H12.1807C12.2453 11.855 12.3092 11.8719 12.364 11.9061C12.4188 11.9404 12.462 11.9904 12.4878 12.0497C12.5137 12.1089 12.5211 12.1746 12.5089 12.2381C12.4968 12.3016 12.4658 12.3599 12.4199 12.4054" fill="white"/>
  <path d="M6.90166 17.0025L11.9507 11.9534C11.9816 11.9215 12.0198 11.8964 12.061 11.8799C12.1021 11.8639 12.146 11.8563 12.1901 11.8576C12.2751 11.8576 12.3564 11.8915 12.4165 11.9516C12.4766 12.0117 12.5104 12.0932 12.5104 12.1782V17.2297C12.5107 17.272 12.5026 17.3139 12.4867 17.3531C12.4707 17.3922 12.4471 17.4278 12.4174 17.4579C12.3876 17.4879 12.3521 17.5117 12.3131 17.5279C12.2741 17.5442 12.2322 17.5526 12.1899 17.5526H7.12888C7.08649 17.553 7.04446 17.5447 7.00538 17.5282C6.96631 17.5118 6.93101 17.4875 6.90166 17.4569C6.87143 17.4273 6.84741 17.3919 6.83102 17.3529C6.81463 17.3139 6.80617 17.272 6.80617 17.2297C6.80617 17.1874 6.81463 17.1455 6.83102 17.1064C6.84741 17.0674 6.87143 17.0321 6.90166 17.0025Z" fill="white"/>
  <path d="M11.951 11.9509L17.0003 6.90197C17.0315 6.87058 17.0689 6.84589 17.11 6.82944C17.1511 6.81299 17.1952 6.80512 17.2395 6.8063C17.2816 6.8063 17.3232 6.81459 17.3621 6.83069C17.401 6.8468 17.4363 6.87041 17.4661 6.90017C17.4958 6.92993 17.5195 6.96526 17.5356 7.00415C17.5517 7.04303 17.56 7.08471 17.56 7.1268V12.1782C17.5603 12.2205 17.5522 12.2625 17.5363 12.3016C17.5203 12.3408 17.4967 12.3764 17.4669 12.4064C17.4372 12.4364 17.4017 12.4602 17.3627 12.4765C17.3236 12.4928 17.2818 12.5011 17.2395 12.5011H12.1809C12.1163 12.5031 12.0526 12.4857 11.9981 12.4511C11.9435 12.4165 11.9006 12.3664 11.8748 12.3071C11.8491 12.2479 11.8417 12.1823 11.8536 12.1188C11.8655 12.0553 11.8962 11.9969 11.9417 11.951" fill="white"/>
  <path d="M17.4592 7.35651L12.4101 12.4056C12.3785 12.4365 12.3412 12.4609 12.3001 12.4773C12.2591 12.4937 12.2152 12.5019 12.1709 12.5012C12.1285 12.5016 12.0863 12.4934 12.047 12.4773C12.0077 12.4612 11.972 12.4374 11.9419 12.4074C11.9119 12.3773 11.8881 12.3416 11.872 12.3023C11.8559 12.263 11.8477 12.2208 11.8481 12.1783V7.1269C11.8481 7.08461 11.8564 7.04274 11.8727 7.0037C11.8889 6.96466 11.9128 6.92922 11.9428 6.89942C11.9728 6.86963 12.0084 6.84608 12.0476 6.83011C12.0867 6.81415 12.1287 6.80609 12.1709 6.8064H17.2224C17.2665 6.80477 17.3105 6.81221 17.3516 6.82825C17.3928 6.84429 17.4302 6.8686 17.4616 6.89968C17.5216 6.96055 17.5553 7.04261 17.5553 7.1281C17.5553 7.21359 17.5216 7.29564 17.4616 7.35651" fill="white"/>
</svg>
